<svg width="470" height="470" viewBox="0 0 470 470" fill="none" xmlns="http://www.w3.org/2000/svg">
<rect width="470" height="470" fill="#090D18"/>
<g clip-path="url(#clip0_1920_254)">
<path d="M281.586 152.62C304.883 154.564 323.989 167.881 338.903 192.57C361.274 229.605 348.992 265.473 331.242 282.97C319.409 294.634 283.147 330.212 222.456 389.7C221.269 390.099 220.285 390.1 219.505 389.704C218.001 388.941 217.249 386.704 217.249 382.993V317.194C217.249 316.568 217.502 315.967 217.951 315.528C284.166 250.851 318.245 217.349 320.187 215.024C322.137 212.692 322.137 210.65 320.187 208.9H256.728C255.436 208.9 254.389 207.857 254.389 206.568V154.952C254.389 153.664 255.436 152.62 256.728 152.62H281.586ZM248.542 80.2999C249.728 79.9013 250.712 79.9001 251.492 80.296C252.996 81.0589 253.748 83.296 253.748 87.0069V152.806C253.748 153.433 253.496 154.033 253.047 154.472C186.832 219.149 152.753 252.651 150.81 254.976C148.861 257.308 148.861 259.349 150.81 261.099H214.269C215.562 261.099 216.609 262.144 216.609 263.432V315.047C216.609 316.335 215.562 317.38 214.269 317.38H189.412C166.115 315.436 147.009 302.119 132.095 277.43C109.723 240.395 122.006 204.526 139.756 187.029C151.589 175.364 187.851 139.788 248.542 80.2999Z" fill="url(#paint0_linear_1920_254)"/>
</g>
<defs>
<linearGradient id="paint0_linear_1920_254" x1="173" y1="147" x2="360.003" y2="289.774" gradientUnits="userSpaceOnUse">
<stop stop-color="#16CDFF"/>
<stop offset="0.41213" stop-color="#6500FF"/>
<stop offset="0.721154" stop-color="#FF00E4"/>
<stop offset="1" stop-color="#D1003F"/>
</linearGradient>
<clipPath id="clip0_1920_254">
<rect width="231" height="310" fill="white" transform="translate(120 80)"/>
</clipPath>
</defs>
</svg>
